HIERARCHY
ROOT Hips
{
  OFFSET 0 0 0
  CHANNELS 6 Xposition Yposition Zposition Zrotation Yrotation Xrotation
  JOINT LeftThigh
  {
    OFFSET 8.409438 0 -5.917753
    CHANNELS 3 Zrotation Yrotation Xrotation
    JOINT LeftLeg
    {
      OFFSET 0 0 -42.358652
      CHANNELS 3 Zrotation Yrotation Xrotation
      JOINT LeftFoot
      {
        OFFSET 0 0 -39.357303
        CHANNELS 3 Zrotation Yrotation Xrotation
      }
    }
  }
  JOINT RightThigh
  {
    OFFSET -8.409438 0 -5.917753
    CHANNELS 3 Zrotation Yrotation Xrotation
    JOINT RightLeg
    {
      OFFSET 0 0 -42.358652
      CHANNELS 3 Zrotation Yrotation Xrotation
      JOINT RightFoot
      {
        OFFSET 0 0 -39.357303
        CHANNELS 3 Zrotation Yrotation Xrotation
      }
    }
  }
  JOINT SpineLow
  {
    OFFSET 0 0 4.719101
    CHANNELS 3 Zrotation Yrotation Xrotation
    JOINT SpineMid
    {
      OFFSET 0 0 12.899191
      CHANNELS 3 Zrotation Yrotation Xrotation
      JOINT Chest
      {
        OFFSET 0 0 12.899191
        CHANNELS 3 Zrotation Yrotation Xrotation
        JOINT LeftShoulder
        {
          OFFSET 7.550562 1.41573 9.438202
          CHANNELS 3 Zrotation Yrotation Xrotation
          JOINT LeftArm
          {
            OFFSET 9.155056 0 4.247191
            CHANNELS 3 Zrotation Yrotation Xrotation
            JOINT LeftForearm
            {
              OFFSET 0 0 25.771955
              CHANNELS 3 Zrotation Yrotation Xrotation
              JOINT LeftHand
              {
                OFFSET 0 0 25.197169
                CHANNELS 3 Zrotation Yrotation Xrotation
              }
            }
          }
        }
        JOINT RightShoulder
        {
          OFFSET -7.550562 1.41573 9.438202
          CHANNELS 3 Zrotation Yrotation Xrotation
          JOINT RightArm
          {
            OFFSET -9.155056 0 4.247191
            CHANNELS 3 Zrotation Yrotation Xrotation
            JOINT RightForearm
            {
              OFFSET 0 0 -25.771955
              CHANNELS 3 Zrotation Yrotation Xrotation
              JOINT RightHand
              {
                OFFSET 0 0 -25.197169
                CHANNELS 3 Zrotation Yrotation Xrotation
              }
            }
          }
        }
        JOINT Neck
        {
          OFFSET 0 0 15.101124
          CHANNELS 3 Zrotation Yrotation Xrotation
          JOINT Head
          {
            OFFSET 0 0 11.325843
            CHANNELS 3 Zrotation Yrotation Xrotation
            End Site
            {
              OFFSET 0 0 14.157303
            }
          }
        }
      }
    }
  }
}
MOTION
Frames: 5
Frame Time: 0.0
0.0  93.25843  0.0  -2.222685  -40.582443  -90.979248  34.959694  -23.314725  -44.824022  -0.241673  3.493886  38.216614  5.504477  0.879369  3.720971  -17.006553  19.476249  -11.315192  -2.119437  12.076855  30.324154  1.487726  1.220173  -1.01119  3.54423  0.043724  0.622033  9.688186  0.028197  1.702467  9.688186  0.028197  1.702467  -25.278878  16.054378  5.354929  -132.091392  69.13465  -67.821837  -47.314268  2.430863  73.622427  70.869092  -13.432662  -0.138636  -8.14336  -13.398043  18.990927  116.907488  29.651036  41.33079  -10.150873  -20.58025  -119.414633  62.276695  -7.548489  -15.446242  10.574432  1.823308  3.198488  7.920873  1.423378  2.367943  
0.0  93.25843  0.0  -2.247146  -40.190208  -90.789319  35.282856  -23.177015  -45.19531  0.428124  3.312926  38.045014  5.37271  0.817452  3.827656  -17.28102  19.533993  -11.029452  -2.461715  12.025761  29.847572  1.584514  1.153764  -0.997798  3.606575  0.059387  0.56172  9.858984  0.078273  1.540328  9.858984  0.078273  1.540328  -25.65436  15.989814  5.516648  -134.508756  69.365084  -69.477116  -47.364366  1.483506  73.405468  70.726149  -13.309712  -0.20356  -8.116681  -13.751897  19.109821  116.920199  30.564358  41.053367  -11.03548  -20.524946  -119.260308  61.75455  -7.331064  -15.709655  10.133719  1.647797  3.083724  7.591682  1.287442  2.286046  
0.0  93.25843  0.0  -2.140869  -39.961424  -90.67717  35.672789  -22.853327  -45.534144  0.955478  3.227186  37.807022  5.453426  0.702075  4.008923  -17.727768  19.67672  -10.999225  -3.364527  11.792593  29.611368  2.137289  1.528145  -1.250288  3.681675  0.099278  0.49969  10.065075  0.194691  1.37731  10.065076  0.194691  1.37731  -25.446955  16.015937  5.703503  -137.734808  69.838391  -71.576244  -47.780151  0.762397  73.06875  70.827899  -13.098333  -0.262568  -8.028209  -14.164777  19.150939  117.100624  31.465612  40.651453  -12.07411  -20.508271  -118.892964  61.564819  -7.056199  -15.952483  9.670377  1.388539  2.953239  7.24592  1.088491  2.193495  
0.0  93.25843  0.0  -2.126737  -39.530837  -90.505889  36.020598  -22.42861  -45.881612  1.294719  3.023232  37.695972  5.364866  0.695602  4.077376  -18.684849  19.689064  -11.132151  -2.94652  11.713918  29.239743  2.197191  1.486099  -1.16919  3.711264  0.114645  0.455112  10.146156  0.24279  1.258207  10.146156  0.24279  1.258207  -25.180261  15.870101  5.63971  -141.558455  69.865108  -74.596164  -48.078572  0.316  72.581152  70.94278  -12.841202  -0.345272  -7.431454  -14.495388  19.085205  116.904331  32.663726  40.127826  -13.052668  -20.514347  -118.396871  61.587291  -6.730413  -16.115959  9.377182  1.235394  2.833787  7.027066  0.970325  2.106886  
0.0  93.25843  0.0  -1.621301  -39.924214  -90.777316  37.059555  -21.636886  -45.932575  1.295716  2.944541  37.595601  5.432294  0.66575  4.174165  -19.02804  20.035359  -11.43252  -2.751451  11.412349  29.153247  2.450778  1.722458  -1.282649  3.851013  0.175296  0.4872  10.52952  0.4003  1.355712  10.529519  0.4003  1.355712  -24.83465  15.57962  5.264806  -145.840502  69.424003  -78.232312  -48.107515  -0.040765  71.970923  71.029308  -12.626855  -0.446929  -6.873749  -14.78113  18.508009  116.938091  33.727169  39.50647  -14.014505  -20.516916  -117.790326  61.490921  -6.439762  -16.186851  9.114938  1.20323  2.57688  6.831025  0.941126  1.915145  
